<svg width="566" height="589" viewBox="0 0 566 589" fill="none" xmlns="http://www.w3.org/2000/svg">
  <rect width="566" height="589" fill="gray"/>
<path d="M44.335 478.709C45.9689 478.703 47.6028 478.697 49.2367 478.689C53.6501 478.672 58.0635 478.667 62.477 478.665C65.2414 478.664 68.0058 478.66 70.7702 478.654C80.4344 478.636 90.0985 478.628 99.7627 478.629C108.739 478.631 117.715 478.609 126.691 478.578C134.425 478.552 142.158 478.541 149.892 478.542C154.499 478.543 159.106 478.537 163.713 478.516C168.05 478.496 172.387 478.497 176.724 478.511C178.305 478.513 179.886 478.508 181.467 478.496C194.937 478.399 206.074 480.95 218.302 486.795C223.013 488.899 227.921 490.277 232.875 491.687C233.861 491.982 234.847 492.277 235.863 492.58C250.009 496.673 263.689 497.414 278.312 497.375C279.247 497.373 280.181 497.371 281.144 497.368C308.337 497.239 335.494 492.53 360.18 480.443C366.983 477.916 374.52 478.592 381.675 478.628C383.369 478.625 385.063 478.622 386.758 478.617C391.345 478.607 395.932 478.617 400.519 478.63C405.333 478.641 410.148 478.637 414.962 478.635C423.052 478.634 431.141 478.645 439.23 478.664C448.556 478.685 457.882 478.689 467.208 478.682C476.205 478.677 485.202 478.682 494.198 478.693C498.014 478.698 501.83 478.699 505.646 478.697C510.151 478.695 514.657 478.703 519.162 478.719C520.806 478.723 522.45 478.724 524.095 478.721C549.663 478.684 549.663 478.684 557 484C557 484.66 557 485.32 557 486C543.035 492.265 529.909 493.119 514.785 493.035C511.124 493.044 507.462 493.057 503.801 493.072C501.31 493.066 498.819 493.033 496.329 492.973C478.948 492.436 478.948 492.436 464.444 500.881C461.767 503.772 459.305 506.794 456.861 509.882C439.866 529.217 408.728 543.216 385 552C384.282 552.281 383.564 552.562 382.824 552.852C380.894 553.604 378.951 554.304 377 555C376.078 555.344 375.157 555.688 374.207 556.043C307.828 579.646 231.8 574.254 168.438 544.188C158.961 539.605 149.798 534.779 141 529C140.029 528.368 140.029 528.368 139.039 527.724C129.442 521.44 120.594 514.588 112 507C110.844 505.993 110.844 505.993 109.664 504.965C108.432 503.891 107.202 502.813 105.977 501.73C105.324 501.159 104.672 500.588 104 500C103.548 499.52 103.096 499.04 102.63 498.546C98.4858 494.447 95.4743 493.304 89.6808 493.193C88.3152 493.212 88.3152 493.212 86.9219 493.23C85.9558 493.219 84.9898 493.208 83.9944 493.196C80.9124 493.166 77.8321 493.175 74.75 493.187C71.7225 493.173 68.6951 493.151 65.6677 493.128C63.6732 493.113 61.6787 493.101 59.6841 493.092C53.3143 493.054 46.9634 492.897 40.6016 492.574C39.8655 492.539 39.1294 492.503 38.371 492.467C16.9869 491.26 16.9869 491.26 10 486C10 485.34 10 484.68 10 484C21.3977 479.357 32.1275 478.7 44.335 478.709Z" fill="#FB7F06"/>
<path d="M181 341C182.237 341.315 183.475 341.629 184.75 341.953C194.508 344.383 204.267 346.528 214.188 348.188C215.098 348.342 216.009 348.496 216.947 348.655C219.96 349.143 222.977 349.577 226 350C227.197 350.181 228.395 350.362 229.628 350.548C243.521 352.478 257.499 352.306 271.493 352.261C275.027 352.249 278.561 352.256 282.095 352.268C303.837 352.328 325.045 351.145 346.491 347.45C348.792 347.055 351.095 346.676 353.398 346.299C360.444 345.121 367.343 343.855 374.126 341.549C376 341 376 341 379 341C379.147 341.548 379.294 342.096 379.445 342.66C381 348.154 382.883 353.454 385 358.75C385.249 359.375 385.498 360.001 385.754 360.645C387.338 364.552 389.106 368.213 391 372C317.74 372 244.48 372 169 372C169.826 368.695 170.735 366.276 172.188 363.25C175.554 355.995 178.259 348.507 181 341Z" fill="#FB7F06"/>
<path d="M5 390C23 390 23 390 27.3906 393.438C28.9102 395.652 28.9102 395.652 30.25 398C30.7386 398.744 31.2271 399.488 31.7305 400.254C32.7036 401.738 33.6528 403.238 34.5762 404.754C36.493 407.778 38.6694 410.566 40.8896 413.371C42 415 42 415 42 417C42.66 417 43.32 417 44 417C44.2217 416.317 44.4434 415.634 44.6719 414.93C46.3673 411.19 48.6787 408.303 51.25 405.125C51.7154 404.538 52.1807 403.952 52.6602 403.348C56.015 399.143 59.4934 395.091 63 391C69.27 391 75.54 391 82 391C82 413.77 82 436.54 82 460C76.06 460 70.12 460 64 460C63.67 446.8 63.34 433.6 63 420C53.239 431.312 53.239 431.312 44 443C40.7386 441.613 39.0259 440.12 36.9062 437.297C36.3507 436.563 35.7951 435.83 35.2227 435.074C34.6542 434.307 34.0857 433.54 33.5 432.75C32.9315 431.998 32.363 431.247 31.7773 430.473C28.7037 426.386 25.8429 422.264 23 418C22.67 431.86 22.34 445.72 22 460C16.39 460 10.78 460 5 460C5 436.9 5 413.8 5 390Z" fill="#F8F9FA"/>
<path d="M318 2.99998C318.998 3.13952 319.995 3.27906 321.023 3.42283C333.58 5.21483 345.849 7.30073 358 11C359.02 11.2952 360.039 11.5904 361.09 11.8945C364.412 12.8789 367.706 13.9267 371 15C371.744 15.2409 372.488 15.4818 373.255 15.73C384.311 19.3424 394.754 23.4577 405.013 28.9453C407.077 30.0409 409.157 31.1008 411.242 32.1562C425.921 39.6492 439.128 48.7366 452 59C452.631 59.499 453.261 59.998 453.911 60.5122C466.128 70.1992 478.177 79.9136 487.836 92.2422C490.085 95.1085 492.44 97.8605 494.812 100.625C504.374 112.143 512.46 124.504 520.188 137.312C520.848 138.405 521.508 139.497 522.188 140.622C522.8 141.65 523.412 142.679 524.043 143.738C524.863 145.116 524.863 145.116 525.7 146.521C526.856 148.726 527.541 150.567 528 153C525.461 152.638 524.304 152.371 522.651 150.352C522.252 149.64 521.853 148.929 521.441 148.195C520.98 147.394 520.519 146.592 520.043 145.767C519.555 144.895 519.066 144.023 518.562 143.125C509.022 126.706 498.331 111.443 486 97C485.233 96.1015 484.466 95.203 483.676 94.2773C474.337 83.6614 464.363 73.4424 453 65C451.574 63.9193 450.148 62.8386 448.723 61.7578C438.799 54.2894 428.729 47.2617 418 41C417.419 40.6581 416.839 40.3161 416.24 39.9638C405.257 33.5765 393.541 28.8444 381.768 24.1208C380.049 23.4247 378.336 22.7123 376.634 21.9748C368.754 18.6205 360.528 16.5479 352.25 14.4375C351.476 14.2389 350.703 14.0403 349.906 13.8357C337.35 10.6316 324.927 8.14516 312 6.99998C310.103 6.80855 310.103 6.80855 308.168 6.61326C239.467 0.979639 169.172 18.3533 115 62C114.067 62.7399 113.133 63.4798 112.172 64.2422C105.172 69.8624 98.4984 75.8108 92 82C91.4011 82.5702 90.8021 83.1405 90.1851 83.728C81.7959 91.775 74.1513 100.054 67.2114 109.383C66.0776 110.896 64.9129 112.387 63.7461 113.875C44.7069 138.398 30.6661 166.598 21 196C20.703 196.893 20.4061 197.786 20.1001 198.707C14.1734 216.804 10.9057 235.229 7.99999 254C7.85159 254.915 7.70318 255.83 7.55028 256.773C2.16111 290.874 6.41773 327.342 11.5747 361.134C12.1113 364.75 12.5695 368.37 13 372C11.68 372 10.36 372 8.99999 372C-3.03261 313.529 -2.29067 253.147 16 196C16.5118 194.357 17.0235 192.714 17.5351 191.07C34.1964 138.488 69.3674 93.2413 112 59C112.966 58.2162 113.931 57.4325 114.926 56.625C128.31 46.0127 143.038 37.1992 158 29C158.719 28.6042 159.439 28.2085 160.18 27.8008C165.597 24.9572 171.313 22.8619 177.041 20.7358C179.154 19.942 181.257 19.1221 183.359 18.3008C194.039 14.1821 204.725 11.086 215.872 8.50681C218.56 7.86672 221.213 7.11585 223.875 6.37498C229.463 4.97991 235.114 4.16916 240.812 3.37498C241.69 3.25171 242.567 3.12845 243.47 3.00144C267.911 -0.224891 293.565 -0.484792 318 2.99998Z" fill="#D7732C"/>
<path d="M240 390C246.27 390 252.54 390 259 390C259.33 399.24 259.66 408.48 260 418C265.44 411.955 270.645 406.075 275.664 399.738C276.435 398.835 277.206 397.931 278 397C278.466 396.382 278.932 395.763 279.411 395.126C281.944 392.1 283.773 390.251 287.717 389.443C290.819 389.312 293.838 389.387 296.938 389.563C298.003 389.594 299.068 389.626 300.166 389.658C302.78 389.74 305.389 389.855 308 390C308 392 308 392 305.863 394.207C304.918 395.129 303.974 396.05 303 397C299.388 400.991 295.948 405.139 292.48 409.255C291.138 410.837 289.773 412.4 288.406 413.961C287.674 414.819 286.942 415.678 286.188 416.563C285.542 417.306 284.896 418.05 284.23 418.816C282.804 420.929 282.804 420.929 283.004 423.387C284.324 426.85 286.407 429.434 288.75 432.25C289.743 433.48 290.735 434.71 291.727 435.941C292.254 436.593 292.782 437.244 293.325 437.915C296.311 441.632 299.219 445.408 302.125 449.188C302.693 449.918 303.261 450.649 303.847 451.401C304.374 452.087 304.902 452.774 305.445 453.48C305.915 454.088 306.384 454.695 306.868 455.321C308 457 308 457 309 460C301.091 461.267 292.776 462.367 285 460C279.12 455.562 275.697 448.952 272.331 442.531C271.052 440.099 269.698 437.748 268.262 435.406C267.679 434.452 267.679 434.452 267.085 433.479C266.053 431.836 266.053 431.836 264 431C263.711 431.784 263.423 432.568 263.125 433.375C262 436 262 436 260 438C259.629 440.325 259.629 440.325 259.586 443.008C259.547 443.994 259.509 444.98 259.469 445.996C259.422 447.545 259.422 447.545 259.375 449.125C259.336 450.165 259.298 451.206 259.258 452.277C259.163 454.851 259.081 457.426 259 460C252.73 460 246.46 460 240 460C240 436.9 240 413.8 240 390Z" fill="#F8F9FA"/>
<path d="M448 391C464.17 391 480.34 391 497 391C497 396.61 497 402.22 497 408C487.43 408 477.86 408 468 408C468 410.97 468 413.94 468 417C475.59 417 483.18 417 491 417C491 422.28 491 427.56 491 433C483.08 433 475.16 433 467 433C467 436.63 467 440.26 467 444C477.23 444 487.46 444 498 444C498 449.28 498 454.56 498 460C481.5 460 465 460 448 460C448 437.23 448 414.46 448 391Z" fill="#F8F9FA"/>
<path d="M360.977 391.777C364.143 393.69 367.085 395.719 370 398C369.442 402.128 367.193 404.502 364.562 407.625C363.759 408.587 362.956 409.548 362.129 410.539C360.803 412.071 359.433 413.567 358 415C357.457 414.59 356.915 414.18 356.355 413.758C355.64 413.219 354.925 412.68 354.188 412.125C353.48 411.591 352.772 411.058 352.043 410.508C347.115 406.871 344.993 406.715 339 407C338.34 407.33 337.68 407.66 337 408C336.581 410.331 336.581 410.331 337 413C339.986 416.519 343.41 417.513 347.688 418.813C355.775 421.382 362.617 425.088 367.125 432.5C369.039 436.553 369.791 439.491 369 444C366.028 451.997 362.506 456.719 354.844 460.598C350.692 462.321 346.833 462.536 342.375 462.5C341.59 462.497 340.806 462.494 339.997 462.491C330.287 462.225 322.532 458.304 314 454C314.519 449.867 315.656 447.825 318.5 444.813C321.06 442.122 321.06 442.122 323 439C326.155 439.605 328.067 440.652 330.625 442.563C335.285 445.602 339.572 445.706 345 445C345.99 444.505 345.99 444.505 347 444C347 442.35 347 440.7 347 439C345.987 438.613 344.974 438.227 343.93 437.828C342.578 437.302 341.226 436.776 339.875 436.25C339.21 435.997 338.545 435.745 337.859 435.484C329.03 432.022 322.497 426.777 317.562 418.625C316.078 411.697 316.246 405.143 320 399C330.624 387.803 346.688 384.784 360.977 391.777Z" fill="#F8F9FA"/>
<path d="M232.688 395.25C233.451 395.828 234.214 396.405 235 397C234.462 401.119 233.236 403.42 230.625 406.625C229.716 407.758 229.716 407.758 228.789 408.914C227.258 410.699 225.692 412.37 224 414C223.55 413.567 223.1 413.134 222.637 412.688C217.779 408.482 214.128 407.091 207.684 407.484C202.599 408.461 199.018 410.697 195.621 414.574C192.576 419.126 192.224 423.66 193 429C195.061 435.508 198.373 439.249 204 443C210.691 443.744 216.142 443.515 222 440C223.32 440 224.64 440 226 440C227.782 442.148 229.26 444.166 230.75 446.5C231.161 447.12 231.572 447.74 231.996 448.379C233.01 449.911 234.007 451.455 235 453C228.115 460.235 219.775 462 210.125 462.375C199.156 462.125 189.964 457.434 182 450C173.441 439.067 172.668 428.528 174 415C175.097 411.124 176.61 408.221 179 405C179.722 403.948 180.444 402.896 181.188 401.813C195.539 387.461 215.178 383.875 232.688 395.25Z" fill="#F8F9FA"/>
<path d="M379.474 389.88C380.573 389.882 381.672 389.884 382.805 389.886C384.046 389.887 385.287 389.887 386.566 389.887C387.931 389.892 389.295 389.897 390.66 389.902C392.049 389.904 393.437 389.906 394.826 389.907C398.487 389.91 402.148 389.92 405.809 389.931C409.543 389.942 413.276 389.946 417.01 389.951C424.34 389.962 431.67 389.98 439 390C439 395.94 439 401.88 439 408C432.4 408 425.8 408 419 408C419 425.16 419 442.32 419 460C412.73 460 406.46 460 400 460C400 442.84 400 425.68 400 408C392.08 408 384.16 408 376 408C375.979 405.216 375.959 402.431 375.937 399.563C375.928 398.684 375.919 397.806 375.91 396.901C375.903 394.934 375.95 392.966 376 391C377 390 377 390 379.474 389.88Z" fill="#F8F9FA"/>
<path d="M98 518C101.78 518.615 104.098 520.339 107.125 522.625C108.591 523.714 108.591 523.714 110.086 524.824C111.048 525.542 112.009 526.26 113 527C133.716 542.185 158.371 557.031 182.875 565C183.821 565.309 184.767 565.619 185.742 565.938C186.817 566.288 187.892 566.639 189 567C189.673 567.228 190.347 567.455 191.041 567.69C238.441 583.703 290.803 588.995 340 578C341.398 577.708 342.797 577.418 344.195 577.129C361.321 573.532 378.084 569.372 394 562C395.955 561.201 397.914 560.409 399.875 559.625C406.827 556.747 413.501 553.334 420.198 549.917C422.792 548.597 425.396 547.298 428 546C428.33 547.32 428.66 548.64 429 550C416.237 557.77 402.919 563.607 389 569C387.57 569.556 387.57 569.556 386.111 570.123C370.73 576.006 355.133 579.792 339 583C338.183 583.169 337.366 583.337 336.524 583.511C264.289 598.378 186.065 580.883 124.672 541.133C117.54 536.417 110.711 531.295 104 526C103.413 525.554 102.826 525.108 102.221 524.648C100.757 523.501 99.3704 522.257 98 521C98 520.01 98 519.02 98 518Z" fill="#D7732C"/>
<path fill-rule="evenodd" clip-rule="evenodd" d="M161 407C157.775 402.142 154.46 398.032 149.688 394.625C137.276 387.078 121.673 386.104 109.523 394.766C100.809 402.168 95.0345 409.905 93.7188 421.473C93.2984 432.524 96.8052 442.155 104.09 450.352C111.14 457.367 119.337 461.079 129.375 461.312L133 461C138.954 460.567 143.838 458.928 149 456C157.071 450.33 163.072 442.481 165.594 432.875C166.714 424.948 166.534 415.834 162.285 408.828L161 407ZM147 418C144.825 413.29 141.848 410.895 137.539 408.172C127.883 403.715 119.388 407.952 114.141 416.473C111.512 422.297 112.318 427.892 114.5 433.75C116.922 438.518 120.087 441.807 125 444C130.625 444.85 135.662 444.618 140.437 441.313C144.41 437.727 146.772 434.7 147.496 429.309L147.437 425.438C147.435 423.422 147.434 422.454 147.373 421.489C147.317 420.598 147.208 419.709 147 418Z" fill="#F8F9FA"/>
<path fill-rule="evenodd" clip-rule="evenodd" d="M184.813 105.562C181.464 101.039 178.087 96.8779 174 93L174 93.0002L174 93.0003C173.527 93.4734 173.119 93.8812 172.762 94.3296C170.529 97.1348 170.289 101.526 168.547 133.384C168.372 136.617 168.191 139.851 168.008 143.084C167.888 145.141 167.768 147.197 167.648 149.254L167.494 152.183L167.341 154.858C167.267 156.241 167.165 157.624 167 159L166.597 159.404C166.468 159.532 166.355 159.646 166.242 159.76C165.784 160.221 165.329 160.685 163.918 162.125C137.253 190.202 126.057 221.387 127 260C129.989 260.52 132.976 261.047 135.963 261.582L139.688 262.25C140.848 262.452 142.02 262.649 143.199 262.847L143.211 262.849C151.263 264.201 159.645 265.61 167 269C167.755 270.085 168.102 270.584 168.357 271.127C168.574 271.589 168.723 272.084 169 273C155.337 271.058 141.795 269.499 128 269C127.829 271.918 128.024 274.078 128.875 276.895L130 279.812C130.659 281.545 131.323 283.275 132 285C143.075 284.62 153.787 283.595 164.695 281.621L168 281V286C162.652 287.581 157.264 288.96 151.854 290.309L148.563 291.125C145.406 291.911 142.249 292.697 139.092 293.481L137 294C137 294.856 137 295.345 137.109 295.809C137.255 296.43 137.595 297.005 138.391 298.348L140.25 301.062C140.344 301.202 140.436 301.34 140.527 301.476C142.106 303.836 143.313 305.64 145.914 307.004H145.915C146.821 307.002 147.334 307.001 147.825 306.897C148.462 306.762 149.063 306.453 150.445 305.742L151.039 305.329C158.752 299.95 166.386 294.627 176 294L177 298C174.902 299.639 172.803 301.12 170.526 302.502L167.797 304.066C165.783 305.234 163.767 306.399 161.75 307.562L158.625 309.35L155.672 311.066C154.132 311.952 153.465 312.335 152.82 312.751C152.327 313.069 151.847 313.406 151 314V316L154 318C174.642 334.345 199.303 340.004 225.112 342.708L228 343C244.568 344.776 261.058 345.167 277.707 345.187L280.938 345.188L281.918 345.189L283.605 345.191C293.816 345.208 304.023 345.225 314.201 344.288L317 344C329.132 342.876 341.155 341.319 353.109 338.938L356.75 338.188C368.559 335.845 379.205 331.846 389.279 325.162L391.063 323.938C395.487 321.041 398.876 318.371 402 314C399.389 312.242 396.779 310.49 394.115 308.813C392.803 307.994 391.494 307.169 390.189 306.338L388.188 305.062L387.946 304.915C385.502 303.416 383.115 301.953 381 300C380.421 298.536 380.16 297.876 380.052 297.191C379.962 296.63 379.976 296.052 380 295L381.688 294.312L381.688 294.313C385.379 295.302 387.302 295.818 389.03 296.711C390.91 297.683 392.558 299.101 396 302.062C399.875 304.931 403.375 307.45 408 309C411.665 304.235 414.854 299.637 417 294C416.489 293.905 415.978 293.811 415.466 293.717L414.711 293.579L414.698 293.576C408.682 292.474 402.67 291.372 396.875 289.375C394.528 288.528 392.387 287.862 389.938 287.312L388 287V281C399.351 283.259 410.434 284.58 422 285C423.008 279.587 423.074 274.479 423 269C416.434 268.801 410.103 269.227 403.59 270.066L400.375 270.5C397.264 270.905 394.154 271.31 391.044 271.725L389 272L390 268C392.422 267.357 394.842 266.831 397.3 266.336L401.172 265.59C403.297 265.18 405.421 264.77 407.546 264.361C408.374 264.202 409.201 264.043 410.028 263.884L411.975 263.509C415.389 262.85 418.803 262.192 422.218 261.535L425 261C425.006 259.29 425.012 257.58 425.015 255.869L425.02 253.758C425.104 231.864 417.948 210.984 406.678 192.383L405.375 190.25L405.088 189.779C403.075 186.474 401.076 183.194 398.476 180.31C386.773 168.384 386.116 156.717 385.868 140.452C385.831 137.803 385.774 135.153 385.698 132.505L385.657 131.262C385.505 126.621 385.353 121.981 385.263 117.339C385.107 109.225 384.882 101.685 382 94C378.519 96.1725 376.554 98.8072 374.296 102.14L372.938 104.188C370.951 107.12 368.97 110.056 367 113C365.823 114.764 364.603 116.744 363.325 118.819C358.408 126.802 352.633 136.178 345.121 139.941C344.099 140.039 343.527 140.093 342.981 139.998C342.288 139.877 341.637 139.516 340.16 138.695C338.549 137.831 337.759 137.407 336.94 137.049C336.154 136.705 335.341 136.422 333.746 135.867L330.438 134.875C326.643 133.722 322.902 132.712 319 132C315.874 147.631 310.012 162.698 300.063 175.312C298.386 177.267 297.024 178.955 295.809 181.23L295 183H293L293 183C284.803 189.847 280.688 193.283 276.209 196.151C271.694 199.042 266.81 201.355 257.002 205.999L257.001 206L257 206C258.525 202.342 260.024 198.677 261.465 194.984C261.976 193.656 262.488 192.328 263 191C263.667 189.329 264.298 187.642 264.875 185.938C269.572 167.648 266.108 144.264 257 128C253.859 127.714 251.992 128.003 249.063 129.25C246.688 130.352 244.415 131.172 241.895 131.914L241.29 132.079C236.636 133.349 232.033 134.605 227.52 136.332C221.192 138.906 215.842 140.652 209 141C208.493 139.478 208.243 138.728 207.886 138.033C207.541 137.358 207.094 136.734 206.215 135.504L206.215 135.504C203.063 131.433 199.928 127.375 197.047 123.105C193.635 117.866 190.129 112.729 186.409 107.704L184.813 105.562ZM204.437 243.75C197.686 241.257 190.917 238.992 184 237L183 238C179.489 245.798 178.073 253.596 178.496 262.098C179.85 272.582 185.881 280.531 194 287C201.475 292.388 208.954 293.049 218 292C225.411 289.644 232.665 284.63 236.844 278.02L238 276C241.366 270.349 244.184 265.614 245 259C237.18 255.764 229.247 252.845 221.301 249.938C218.581 248.944 215.863 247.949 213.146 246.949C211.2 246.232 209.253 245.516 207.306 244.802L204.437 243.75ZM375 237C368.083 238.992 361.314 241.257 354.563 243.75L351.694 244.802C349.747 245.516 347.8 246.232 345.854 246.949C343.137 247.949 340.419 248.944 337.699 249.938C329.753 252.845 321.82 255.764 314 259C314.816 265.614 317.634 270.349 321 276L322.156 278.02C326.335 284.63 333.589 289.644 341 292C350.046 293.049 357.525 292.388 365 287C373.119 280.531 379.15 272.582 380.504 262.098C380.927 253.596 379.511 245.798 376 238L375 237ZM300 288C298.55 286.279 297.108 285.071 295.231 283.832C284.022 278.238 270.263 279.988 260 287C259.37 288.197 259.057 288.791 258.935 289.422C258.814 290.042 258.876 290.698 259 292C261.335 296.772 264.71 299.832 268.969 302.867C271.796 304.444 273.842 304.601 277 304L279 302L281.125 302.375C284.899 303.195 288.132 303.187 292 303C294.604 301.264 295.873 300.17 297.688 297.75C299.992 294.408 300.748 292.115 300 288Z" fill="#FB7F06"/>
<path fill-rule="evenodd" clip-rule="evenodd" d="M287.111 19.5717L283.812 19.5625C263.697 19.4422 243.899 20.774 224.205 25.091L221.125 25.8125C169.912 37.5869 124.358 65.3938 89.434 104.395L88 106C71.0992 124.787 56.6974 145.906 45.999 168.839L45 171C35.0039 192.382 27.7188 214.867 23.5039 238.111L23 241C15.2967 284.277 19.4581 329.291 28 372H93C92.8776 371.694 92.7556 371.388 92.6336 371.082C91.8427 369.096 91.0512 367.109 90.1406 365.176C84.971 354.36 81.5112 342.771 78.8474 331.114L78.1875 328.125L77.5608 325.32C68.561 282.68 77.6366 231.583 101.223 194.734C102.251 193.152 103.269 191.564 104.261 189.959C105.046 188.68 105.829 187.391 106.615 186.097C113.197 175.26 119.986 164.081 129.625 155.812C130.779 154.911 131.916 153.984 133 153V151C133.962 151 134.461 151 134.898 150.835C135.369 150.656 135.768 150.285 136.597 149.514C138.195 146.651 138.38 144.359 138.441 141.112L138.441 138.781C138.467 137.118 138.492 135.456 138.517 133.793C138.554 129.356 138.618 124.921 138.704 120.485L138.758 117.848C138.885 111.348 139.094 104.884 139.681 98.4062L139.937 95.9375C140.32 92.0929 140.862 88.464 141.969 84.7461L143 82C144.816 77.0506 147.248 73.4143 151.062 69.75C160.103 62.2699 169.515 61.0781 181 62C198.876 67.9588 210.538 79.3691 220.937 94.75C221.831 96.1455 222.222 96.7571 222.654 97.3381C222.992 97.7915 223.355 98.2261 224 99H227C240.363 94.2436 253.133 92.6002 267.234 92.6875C269.885 92.7191 272.535 92.7501 275.186 92.7597C276.954 92.7636 278.722 92.7702 280.49 92.7796L283.031 92.7969C289.787 92.8335 296.259 93.2637 302.908 94.5725L305.566 95.1914C307.566 95.6449 309.565 96.102 311.562 96.5625C316.629 97.7452 321.698 98.7684 326.82 99.6797C328.402 99.3415 329.368 99.1351 330.185 98.6685C331.465 97.9378 332.38 96.5688 334.729 93.0559L336.312 90.5625C345.999 76.2828 358.635 64.7449 376 61C387.007 59.7692 397.226 62.1106 406 69C417.918 80.9176 419.09 100.216 419.109 116.215L419.098 118.656C419.095 121.938 419.091 125.219 419.062 128.5C418.949 133.338 418.85 138.158 419.215 142.988C419.938 148.245 422.658 151.064 426.715 154.333C451.242 172.225 467.925 206.238 477.198 234.303C489.789 274.073 491.839 323.099 472.402 361.309C470.455 364.93 469.345 367.965 468 372H545C565.02 311.94 559.08 233.817 534.059 176.391C533.384 174.868 532.729 173.338 532.098 171.797C531.438 170.181 530.725 168.588 530 167C528.875 165.875 528.383 165.383 527.789 165.139C527.326 164.949 526.803 164.91 525.871 164.84L525.474 164.856C523.313 164.943 521.164 165.03 519 165C518.517 164.546 518.239 164.285 517.995 163.995C517.667 163.605 517.401 163.162 516.776 162.121L515.227 159.652L513.493 156.902C504.654 142.875 495.646 129.036 485.379 116.004L483 113C457.961 80.5005 423.951 56.523 386.727 40.0781C385.15 39.3868 383.575 38.6941 382 38C375.463 35.0442 369.07 32.537 362.149 30.5947L360 30C353.104 28.0767 346.186 26.3042 339.205 24.7138L336 24C319.748 20.3359 303.71 19.6401 287.111 19.5717ZM287.741 45.3448C287.101 44.9551 286.414 44.6429 285 44C277.077 43.1451 273.233 45.423 269 52C268.534 55.9259 268.796 59.2377 270 63H272V65L274.5 67.125C279.296 69.6942 282.915 69.857 288.25 68.375C291.057 66.1698 292.393 64.2139 294 61C294.725 56.4051 295.018 52.4704 292.313 48.5625L290 47C288.907 46.15 288.345 45.7129 287.741 45.3448Z" fill="#FB7F06"/>
<path fill-rule="evenodd" clip-rule="evenodd" d="M524.438 390.75L506 391V460H525V441H534C534 441.843 534 442.371 534.111 442.874C534.297 443.717 534.794 444.491 536.125 446.563C537.115 448.021 538.072 449.502 539 451C539.969 453.634 540.94 455.905 542.445 458.277C543.639 459.082 544.531 459.684 545.5 460.11C548.374 461.374 551.924 461.097 566 460C566 459.627 566 459.394 565.954 459.169C565.877 458.791 565.67 458.44 565.114 457.497L563.883 455.578C562.966 454.134 562.046 452.691 561.125 451.25C560.994 451.047 560.864 450.844 560.734 450.641C558.111 446.561 555.589 442.639 554 438L556.25 436C561.262 430.925 563.492 425.289 563.498 418.191L563.438 415.875C563.498 409.327 562.951 404.44 558.492 399.242C549.481 391.624 541.714 390.51 530.201 390.64L524.438 390.75ZM538.256 407.126C535.691 406 532.632 406 524 406V427C524.945 427.021 525.896 427.059 526.85 427.097C532.052 427.304 537.33 427.515 542 425C544.451 422.14 544.966 420.236 545.5 416.5C545.25 414.748 545.125 413.873 544.795 413.083C544.467 412.295 543.936 411.592 542.875 410.188C540.924 408.703 539.665 407.745 538.256 407.126Z" fill="#F8F9FA"/>
<path d="M151 343C154.735 343.498 156.812 343.875 160 346C158.04 351.254 155.422 356.153 152.834 361.117C152.311 362.142 152.311 362.142 151.777 363.188C151.46 363.8 151.143 364.412 150.816 365.043C149.742 367.438 149.742 367.438 149 372C145.04 372 141.08 372 137 372C138.234 361.439 144.875 351.48 151 343Z" fill="#F8F9FA"/>
<path d="M406.934 342.648C415.113 347.999 420.293 360.196 424 369C424 369.99 424 370.98 424 372C420.04 372 416.08 372 412 372C411.625 370.949 411.25 369.899 410.863 368.816C408.331 361.833 405.852 355.077 401.98 348.699C401 347 401 347 400 344C404.401 341.799 404.401 341.799 406.934 342.648Z" fill="#F8F9FA"/>
<path d="M286 50C287.938 51.1875 287.938 51.1875 289 53C289.5 55.9375 289.5 55.9375 289 59C286.373 61.9356 284.784 62.8902 280.875 63.4375C278 63 278 63 276.125 62C274.311 58.7746 274.341 55.5998 275 52C278.057 47.9642 281.443 48.8399 286 50Z" fill="#FA7915"/>
<path d="M363 249C364.875 250.063 364.875 250.063 366 252C366.312 255.563 366.312 255.563 366 259C364 261 364 261 360.562 261.375C357 261 357 261 355.062 259.313C353.808 256.582 353.543 254.971 354 252C356.265 248.351 358.968 248.496 363 249Z" fill="#F8F9FA"/>
<path d="M265 286C268.511 286.444 270.326 287.868 272.812 290.312C273.438 290.907 274.063 291.501 274.707 292.113C276 294 276 294 275.699 296.23C275.468 296.814 275.238 297.398 275 298C271.527 298.316 269.624 298.422 266.688 296.438C264.515 293.3 264.214 290.775 264 287C264.33 286.67 264.66 286.34 265 286Z" fill="#F8F9FA"/>
<path d="M293.938 287.062C294.618 287.372 295.299 287.681 296 288C296.38 291.324 296.084 292.848 294.438 295.812C292 298 292 298 288.25 298.312C287.178 298.209 286.105 298.106 285 298C284.305 296.238 284.305 296.238 284 294C286.437 290.208 289.305 286.964 293.938 287.062Z" fill="#F8F9FA"/>
<path d="M205.438 251.812C208 252 208 252 210 254C210.188 256.562 210.188 256.562 210 259C209 260 209 260 206 260.125C203 260 203 260 202 259C201.875 256 201.875 256 202 253C203 252 203 252 205.438 251.812Z" fill="#F8F9FA"/>
<path d="M345.062 254.938C346.517 254.968 346.517 254.968 348 255C348.043 257 348.041 259 348 261C347 262 347 262 344.5 262.125C342 262 342 262 341 261C340.875 258.5 340.875 258.5 341 256C342 255 342 255 345.062 254.938Z" fill="#F8F9FA"/>
</svg>
